<svg xmlns="http://www.w3.org/2000/svg" viewBox="0 0 1600 400" width="400">
  <path d="M1367.21 312.501C1379.83 312.501 1390.25 316.71 1398.5 325.168C1406.75 333.626 1410.88 344.001 1410.88 356.334C1410.88 368.667 1406.79 379.043 1398.58 387.418C1390.38 395.793 1380 400.001 1367.38 400.001C1354.75 400.001 1344.25 395.792 1335.92 387.334C1327.54 378.876 1323.38 368.501 1323.38 356.168C1323.38 343.835 1327.54 333.459 1335.83 325.084C1344.13 316.709 1354.59 312.501 1367.21 312.501ZM1167.04 149.792H635.292C501.959 149.792 473.584 160.083 403.667 227.875H403.708L226.292 400H0L281.542 120.583C386.208 17 436.667 0 615.125 0H1320.04L1167.04 149.792ZM1144.21 173.708L1003.96 313.958H641.125C574.625 313.958 559.917 317.083 526.917 350.083L477 400H267.167L422.292 244.875C483.209 184 504.209 173.708 638.5 173.708H1144.21ZM1600 0L1198.92 400H950.875L1350.88 0H1600Z" fill="#E10600"></path>
</svg>
