<?xml version="1.0" encoding="UTF-8"?>
<svg
  xmlns="http://www.w3.org/2000/svg"
  viewBox="0 0 255.215 40.897"
  role="img"
  aria-label="Logo graphic part"
>
  <path
    d="M223.96 0.150757L233.074 29.6925C233.216 30.0863 233.359 30.4004 233.501 30.6308C233.644 30.8653 233.878 30.9784 234.197 30.9784C234.553 30.9784 234.812 30.8695 234.976 30.6559C235.139 30.4423 235.29 30.103 235.432 29.6381L244.601 0.150757H255.215L245.242 31.5145C244.312 34.4088 243.026 36.6958 241.38 38.3754C239.734 40.055 237.413 40.8969 234.41 40.8969C231.156 40.8969 228.718 40.1094 227.093 38.5387C225.468 36.968 224.152 34.6266 223.151 31.5145L212.86 0.150757H223.96Z"
    fill="currentColor"
  />
</svg>
