<svg viewBox="0 0 256 41" fill="none" xmlns="http://www.w3.org/2000/svg" role="img" class="" style="height:16px"><title>F1 TV</title><g clip-path="url(#clip0_1923_13847:S1:)"><path d="M186.322 40.3607V8.99696H171.042V0.150757H212.324V8.99696H197.044V40.3607H186.322Z" fill="currentColor"></path><path d="M223.96 0.150757L233.074 29.6925C233.216 30.0863 233.359 30.4004 233.501 30.6308C233.644 30.8653 233.878 30.9784 234.197 30.9784C234.553 30.9784 234.812 30.8695 234.976 30.6559C235.139 30.4423 235.29 30.103 235.432 29.6381L244.601 0.150757H255.215L245.242 31.5145C244.312 34.4088 243.026 36.6958 241.38 38.3754C239.734 40.055 237.413 40.8969 234.41 40.8969C231.156 40.8969 228.718 40.1094 227.093 38.5387C225.468 36.968 224.152 34.6266 223.151 31.5145L212.86 0.150757H223.96Z" fill="currentColor"></path><path d="M40.732 23.0579L22.8972 40.3607H0.149231L28.4512 12.2724C38.9728 1.85968 44.0451 0.150757 61.9847 0.150757H132.846L117.466 15.2086H64.0119C50.6086 15.2086 47.7562 16.2431 40.7278 23.0579H40.732ZM115.171 17.6128H64.3344C50.8348 17.6128 48.7237 18.6474 42.6001 24.7668L27.0062 40.3607H48.0996L53.1175 35.3429C56.4348 32.0256 57.9134 31.7114 64.5983 31.7114H101.072L115.171 17.6128ZM120.67 40.3607L160.989 0.150757H135.946L95.7359 40.3607H120.674H120.67Z" fill="#E10600"></path><path d="M137.605 40.3608C136.336 40.3608 135.28 39.9377 134.442 39.0874C133.6 38.2372 133.182 37.1942 133.182 35.9544C133.182 34.7146 133.6 33.6717 134.434 32.8298C135.267 31.9879 136.319 31.5648 137.588 31.5648C138.857 31.5648 139.904 31.9879 140.733 32.8381C141.563 33.6884 141.977 34.7314 141.977 35.9712C141.977 37.211 141.567 38.2539 140.742 39.0958C139.917 39.9377 138.874 40.3608 137.605 40.3608ZM137.579 32.2559C136.541 32.2559 135.67 32.6161 134.966 33.3366C134.266 34.057 133.915 34.9282 133.915 35.9544C133.915 36.9806 134.266 37.8518 134.966 38.5722C135.665 39.2927 136.537 39.6529 137.579 39.6529C138.622 39.6529 139.489 39.2969 140.193 38.5806C140.893 37.8644 141.244 36.9932 141.244 35.9628C141.244 34.9324 140.893 34.057 140.193 33.3366C139.494 32.6161 138.622 32.2559 137.579 32.2559ZM136.721 36.6874V38.4131H135.753V33.5334H137.588C138.22 33.5334 138.698 33.6507 139.016 33.8895C139.334 34.124 139.494 34.48 139.494 34.9533C139.494 35.4267 139.431 35.7785 139.301 36.0089C139.171 36.2392 138.953 36.4235 138.643 36.5659L139.561 38.4173H138.543L137.709 36.6916H136.725L136.721 36.6874ZM136.704 34.2874V35.9293H137.688C137.99 35.9293 138.208 35.8665 138.338 35.7366C138.472 35.6068 138.539 35.3973 138.539 35.1083C138.539 34.5596 138.195 34.2874 137.504 34.2874H136.704Z" fill="#E10600"></path></g><defs><clipPath id="clip0_1923_13847:S1:"><rect width="255.065" height="40.7461" fill="white" transform="translate(0.149231 0.150757)"></rect></clipPath></defs></svg>