<?xml version="1.0" encoding="UTF-8"?><svg id="Laag_1" xmlns="http://www.w3.org/2000/svg" viewBox="0 0 223.2 17.1"><polygon points="0 .2 6 .2 6.7 9.4 12.4 .2 18.6 .2 7.5 16.7 2.2 16.7 0 .2" style="fill:#fff; stroke-width:0px;"/><polygon points="19.1 .2 33.1 .2 31.9 4.7 23.2 4.7 22.8 6.4 30.8 6.4 29.8 10.3 21.7 10.3 21.3 12.1 30 12.1 28.8 16.6 14.7 16.6 19.1 .2" style="fill:#fff; stroke-width:0px;"/><path d="m40.2,8c1.8,0,2.8-.8,2.8-1.9,0-.3-.1-.6-.4-.9-.3-.3-.8-.5-1.6-.5h-1.9l-.9,3.2h2v.1ZM34.9.2h6.4c3,0,5,.7,6.1,1.8.9.9,1.3,2.1,1.3,3.4,0,2.6-1.3,4.8-4.6,5.8l2.3,5.5h-5.9l-1.8-4.7h-1.4l-1.3,4.7h-5.5L34.9.2Z" style="fill:#fff; stroke-width:0px;"/><path d="m47,14l3.1-3.7c1.9,1.6,3.8,2.3,5.5,2.3.7,0,1.2-.3,1.2-.7,0-.5-.3-.7-2.7-1.6-3.1-1.1-4.5-2.2-4.5-4.6C49.6,2.5,52.5,0,57,0,59.9,0,62.5.9,64.3,2.5l-3.1,3.7c-1.2-1-3-1.8-4.7-1.8-.7,0-1.2.2-1.2.7s.4.6,2.6,1.4c2.8,1,4.6,2.2,4.6,4.7,0,3.3-2.7,5.9-7.4,5.9-3.2-.2-6.1-1.3-8.1-3.1" style="fill:#fff; stroke-width:0px;"/><polygon points="69.2 4.9 64.3 4.9 65.6 .2 80.7 .2 79.5 4.9 74.7 4.9 71.5 16.6 66 16.6 69.2 4.9" style="fill:#fff; stroke-width:0px;"/><path d="m87.2,10.5l-.4-4-2.6,4h3ZM85.7.1h5.4l2.5,16.5h-5.8l-.3-2.2h-5.7l-1.4,2.2h-6L85.7.1Z" style="fill:#fff; stroke-width:0px;"/><path d="m102.8,8.3c2.1,0,3.1-.9,3.1-2.2,0-.4-.1-.7-.4-1-.4-.4-1-.5-1.6-.5h-1l-1,3.7h.9ZM98.5.2h5.5c3,0,4.9.6,6.1,1.8.9.9,1.3,2,1.3,3.3,0,4.1-3.1,6.8-8.3,6.8h-2.4l-1.2,4.4h-5.5L98.5.2Z" style="fill:#fff; stroke-width:0px;"/><path d="m118.4,8.3c2.1,0,3-.9,3-2.2,0-.4-.1-.7-.4-1-.4-.4-1-.5-1.6-.5h-1l-1,3.7h1ZM114.1.2h5.5c3,0,4.9.6,6.1,1.8.9.9,1.3,2,1.3,3.3,0,4.1-3.1,6.8-8.3,6.8h-2.3l-1.2,4.4h-5.5L114.1.2Z" style="fill:#fff; stroke-width:0px;"/><polygon points="129.7 .2 143.7 .2 142.5 4.7 133.9 4.7 133.4 6.4 141.4 6.4 140.4 10.3 132.3 10.3 131.9 12.1 140.6 12.1 139.4 16.6 125.3 16.6 129.7 .2" style="fill:#fff; stroke-width:0px;"/><polygon points="145.5 .2 150.6 .2 154.3 8 156.5 .2 161.9 .2 157.5 16.6 152.6 16.6 148.7 8.5 146.5 16.6 141.1 16.6 145.5 .2" style="fill:#fff; stroke-width:0px;"/><polygon points="162.5 14.1 164.6 14.1 164 16.6 161.8 16.6 162.5 14.1" style="fill:#fff; stroke-width:0px;"/><path d="m171.6,16.4c-.8-.3-1.6-.8-2.2-1.3-.6-.6-1.1-1.3-1.5-2.1s-.6-1.8-.6-2.8c0-1.3.3-2.6.8-3.8s1.2-2.3,2.1-3.3c.9-.9,1.9-1.7,3.1-2.3,1.2-.6,2.5-.8,3.8-.8,1.5,0,2.8.3,3.8,1s1.8,1.5,2.4,2.5l-1.6,1c-.5-.9-1.1-1.5-1.9-2-.7-.5-1.7-.8-2.9-.8-1.1,0-2.1.2-3,.7s-1.8,1.1-2.5,1.9c-.7.8-1.3,1.7-1.7,2.7s-.6,2.1-.6,3.1c0,.8.1,1.5.4,2.1.3.6.6,1.2,1.1,1.6.5.4,1,.8,1.6,1s1.3.4,2.1.4c1.1,0,2.1-.2,2.9-.6.8-.4,1.5-.9,2.2-1.6l1.2,1.2c-.4.4-.8.7-1.2,1.1-.4.3-.9.6-1.5.9-.5.3-1.1.4-1.7.6-.6.1-1.3.2-2,.2-.8-.1-1.7-.2-2.6-.6" style="fill:#fff; stroke-width:0px;"/><path d="m195,14.5c.9-.5,1.7-1.1,2.4-1.8.7-.8,1.2-1.6,1.6-2.6.4-1,.6-2,.6-3,0-.8-.1-1.5-.4-2.2-.3-.7-.6-1.2-1.1-1.7s-1-.9-1.7-1.1c-.7-.3-1.4-.4-2.2-.4-1.1,0-2.1.2-3,.7s-1.7,1.1-2.4,1.8c-.7.8-1.2,1.6-1.6,2.6-.4,1-.6,2-.6,3,0,.8.1,1.5.4,2.2.3.7.6,1.2,1.1,1.7s1,.9,1.7,1.1c.7.3,1.4.4,2.2.4,1.1,0,2.1-.2,3-.7m-6.1,1.9c-.9-.4-1.6-.9-2.3-1.5-.6-.6-1.1-1.4-1.5-2.3-.4-.9-.5-1.8-.5-2.8,0-1.3.2-2.5.7-3.7s1.2-2.2,2-3.1c.9-.9,1.9-1.6,3-2.2C191.5.2,192.7,0,194.1,0c1.1,0,2,.2,2.9.6.9.4,1.6.9,2.3,1.5.6.6,1.1,1.4,1.5,2.2.4.9.5,1.8.5,2.8,0,1.3-.2,2.5-.7,3.7s-1.2,2.2-2,3.2c-.9.9-1.9,1.6-3,2.2-1.2.6-2.4.8-3.8.8-1-.1-2-.3-2.9-.6" style="fill:#fff; stroke-width:0px;"/><polygon points="207.5 .2 209.2 .2 212.8 9.2 221.1 .2 223.2 .2 218.8 16.6 216.9 16.6 220.5 3.3 212.1 12.1 212.1 12.1 208.5 3.4 204.9 16.6 203.1 16.6 207.5 .2" style="fill:#fff; stroke-width:0px;"/></svg>