<svg width="205" height="36" viewBox="0 0 205 36" fill="none" xmlns="http://www.w3.org/2000/svg">
<g clip-path="url(#clip0_1266_2992)">
<path d="M3.1781 31.8825C5.0321 31.8825 6.33701 31.1525 6.51789 29.9703C6.70523 28.8011 5.63288 20.9329 6.87319 20.3579C8.1135 19.783 9.17939 22.7869 9.48301 25.0737C9.78662 27.3605 10.9042 28.1938 12.6807 28.1938C14.4572 28.1938 15.2776 26.9923 15.6329 25.2352C15.9882 23.4846 18.275 15.2804 19.4959 15.2804C20.7169 15.2804 21.1626 19.1305 21.4016 20.7714C21.6471 22.4122 22.9714 31.3011 23.6432 32.9548C24.315 34.6021 24.6316 36.1525 27.306 35.2287C29.9804 34.2985 29.1406 32.5995 28.8241 31.5401C28.514 30.4807 27.0476 23.9884 26.3693 19.8282C25.691 15.6616 24.2504 8.69127 23.8305 7.37344C23.4107 6.05561 23.5657 5.08015 21.182 5.01555C18.7983 4.94449 17.2156 7.3153 16.3112 9.64088C15.4068 11.9665 14.328 14.9833 13.9856 15.7197C13.6497 16.4561 13.4042 17.5156 12.7065 17.5156C12.0088 17.5156 11.6858 16.5595 11.4468 15.6939C11.2014 14.8153 9.76078 8.45871 8.58507 6.56594C7.4029 4.67318 7.17034 3.83984 5.21298 3.83984C3.25562 3.83984 3.01014 5.36439 2.77758 8.21969C2.54502 11.075 1.81505 19.4665 1.15613 22.7998C0.503679 26.1396 -1.9511 31.8954 3.17164 31.8954L3.1781 31.8825Z" fill="#151F6D"/>
<path d="M60.071 34.8532C66.2661 34.8532 67.8036 30.9966 68.2041 28.3804C68.6046 25.7576 68.4819 25.8028 69.0116 25.4992C69.5478 25.1956 69.8449 24.8015 69.8449 23.7163C69.8449 22.631 68.5271 21.1969 66.04 21.1969C62.7067 21.1969 61.6214 23.2189 61.6214 24.0264C61.6214 24.8338 62.7196 25.37 63.3721 25.6607C64.0245 25.945 64.1343 26.7331 64.0439 27.1917C63.9535 27.6439 63.0361 31.7072 59.8708 30.7059C56.7054 29.7111 54.9806 25.0406 56.6666 19.3106C58.3591 13.5806 59.8256 11.4747 63.2881 12.0884C66.7442 12.7085 68.624 12.8054 69.2248 10.8804C69.9031 8.72274 61.1434 5.60258 56.2274 10.6349C51.3049 15.6672 51.0594 20.0083 51.1821 23.8326C51.3049 27.6568 52.0478 34.8597 60.0646 34.8597L60.071 34.8532Z" fill="#151F6D"/>
<path d="M79.5153 32.9485C82.5967 33.194 86.9959 31.0299 88.5075 24.2147C90.0191 17.3994 88.9533 13.9692 87.3318 12.07C85.7168 10.1643 83.7788 10.0868 82.868 10.6682C81.9636 11.2431 82.1574 12.5416 82.6484 13.4589C83.1393 14.3697 85.4261 17.6514 84.8254 21.3852C84.2246 25.1255 81.7504 29.318 80.0385 29.0209C78.3266 28.7237 77.8421 23.9886 77.7259 22.7935C77.6096 21.5984 77.6354 15.4033 77.7 13.9175C77.7711 12.4317 76.3951 11.9343 75.2065 11.9085C74.0179 11.8826 72.5514 12.141 72.4223 13.9175C72.2931 15.7005 71.085 32.2832 79.5153 32.955V32.9485Z" fill="#151F6D"/>
<path d="M41.5889 11.8045C38.0231 11.2748 32.3254 14.789 30.607 20.435C28.8951 26.0875 32.9003 32.2115 38.8758 32.3213C42.8422 32.3924 48.3654 28.5681 49.0566 22.373C49.7479 16.1715 45.1548 12.3278 41.5889 11.8045ZM43.9468 23.8394C43.1135 26.9337 40.213 29.0074 38.4042 28.2064C34.722 26.572 35.2776 22.6637 36.7375 19.9053C38.1975 17.1469 39.2892 16.9208 41.66 17.4053C44.0308 17.8898 44.7737 20.7451 43.9468 23.8394Z" fill="#151F6D"/>
<path d="M106.13 31.8825C107.984 31.8825 109.289 31.1525 109.47 29.9703C109.658 28.8011 108.585 20.9329 109.825 20.3579C111.066 19.783 112.132 22.7869 112.435 25.0737C112.732 27.3605 113.856 28.1938 115.633 28.1938C117.409 28.1938 118.23 26.9923 118.585 25.2352C118.94 23.4846 121.227 15.2804 122.448 15.2804C123.669 15.2804 124.115 19.1305 124.354 20.7714C124.599 22.4122 125.924 31.3011 126.596 32.9548C127.267 34.6021 127.584 36.1525 130.258 35.2287C132.933 34.2985 132.093 32.5995 131.776 31.5401C131.466 30.4807 130 23.9884 129.322 19.8282C128.643 15.6616 127.203 8.69127 126.789 7.37344C126.369 6.05561 126.524 5.08015 124.141 5.01555C121.757 4.94449 120.174 7.3153 119.27 9.64088C118.366 11.9665 117.287 14.9833 116.951 15.7197C116.615 16.4561 116.369 17.5156 115.672 17.5156C114.974 17.5156 114.651 16.5595 114.412 15.6939C114.167 14.8153 112.726 8.45871 111.55 6.56594C110.368 4.67318 110.136 3.83984 108.178 3.83984C106.221 3.83984 105.982 5.36439 105.743 8.21969C105.51 11.075 104.78 19.4665 104.121 22.7998C103.462 26.1396 101.014 31.8954 106.137 31.8954L106.13 31.8825Z" fill="#151F6D"/>
<path d="M163.126 34.8532C169.321 34.8532 170.865 30.9966 171.266 28.3804C171.666 25.7576 171.544 25.8028 172.073 25.4992C172.603 25.1956 172.907 24.8015 172.907 23.7163C172.907 22.631 171.589 21.1969 169.102 21.1969C165.762 21.1969 164.683 23.2189 164.683 24.0264C164.683 24.8338 165.781 25.37 166.427 25.6607C167.08 25.945 167.19 26.7331 167.099 27.1917C167.009 27.6439 166.098 31.7072 162.926 30.7059C159.761 29.7111 158.036 25.0406 159.722 19.3106C161.414 13.5806 162.874 11.4747 166.337 12.0884C169.8 12.7085 171.673 12.8054 172.28 10.8804C172.952 8.72274 164.199 5.60258 159.276 10.6349C154.36 15.6672 154.108 20.0083 154.237 23.8326C154.36 27.6568 155.11 34.8597 163.12 34.8597L163.126 34.8532Z" fill="#151F6D"/>
<path d="M182.577 32.9485C185.659 33.194 190.058 31.0299 191.563 24.2147C193.075 17.3994 192.015 13.9692 190.394 12.07C188.773 10.1643 186.841 10.0868 185.93 10.6682C185.019 11.2431 185.213 12.5416 185.711 13.4589C186.201 14.3697 188.488 17.6514 187.888 21.3852C187.287 25.1255 184.813 29.318 183.094 29.0209C181.382 28.7237 180.898 23.9886 180.782 22.7935C180.665 21.5984 180.691 15.4033 180.756 13.9175C180.82 12.4317 179.451 11.9343 178.262 11.9085C177.074 11.8826 175.607 12.141 175.478 13.9175C175.349 15.7005 174.147 32.2832 182.571 32.955L182.577 32.9485Z" fill="#151F6D"/>
<path d="M144.645 11.8045C141.079 11.2748 135.381 14.789 133.663 20.435C131.951 26.0875 135.956 32.2115 141.931 32.3213C145.904 32.3924 151.421 28.5681 152.112 22.373C152.804 16.1715 148.211 12.3278 144.645 11.8045ZM147.002 23.8394C146.169 26.9337 143.269 29.0074 141.46 28.2064C137.778 26.572 138.333 22.6637 139.793 19.9053C141.253 17.1469 142.345 16.9208 144.716 17.4053C147.086 17.8898 147.836 20.7451 147.002 23.8394Z" fill="#151F6D"/>
<path d="M202.061 3.28379L189.78 0.673974C189.587 0.635215 189.386 0.609375 189.192 0.609375C187.862 0.609375 186.693 1.55253 186.415 2.85744L185.394 7.6701H187.397L188.333 3.26441C188.417 2.8639 188.779 2.56674 189.192 2.56674C189.251 2.56674 189.315 2.5732 189.373 2.58612L201.654 5.19594C202.125 5.2993 202.429 5.76441 202.332 6.23599L199.722 18.5164C199.625 18.9815 199.147 19.2915 198.682 19.1946L195.491 18.5164V20.5189L198.275 21.1068C198.469 21.1456 198.669 21.1714 198.863 21.1714C200.194 21.1714 201.363 20.2282 201.641 18.9233L204.251 6.63651C204.574 5.1055 203.592 3.59387 202.067 3.27087L202.061 3.28379Z" fill="#00B5E2"/>
<path d="M201.35 3.43282C201.35 1.81137 200.039 0.5 198.417 0.5C196.796 0.5 195.484 1.81137 195.484 3.43282C195.484 5.05426 196.796 6.36563 198.417 6.36563C200.039 6.36563 201.35 5.05426 201.35 3.43282Z" fill="#E40046"/>
<path d="M190.827 31.4746H192.035V31.7007H191.563V32.9669H191.298V31.7007H190.827V31.4746Z" fill="#151F6D"/>
<path d="M192.209 31.4746H192.577L192.991 32.6439L193.391 31.4746H193.753V32.9669H193.501V31.817L193.088 32.9669H192.874L192.461 31.817V32.9669H192.209V31.4746Z" fill="#151F6D"/>
</g>
<defs>
<clipPath id="clip0_1266_2992">
<rect width="204.309" height="35" fill="white" transform="translate(0 0.5)"/>
</clipPath>
</defs>
</svg>
