<svg xmlns="http://www.w3.org/2000/svg" viewBox="0 0 128 19" fill="none">
  <title>DHL</title>

  <path d="M0 16.9624H15.5097L14.6184 18.2033H0V16.9624Z" fill="#D40511"></path>
  <path d="M127.911 18.2033H108.925L109.905 16.9624H128V18.2033H127.911Z" fill="#D40511"></path>
  <path d="M0 14.6577H17.2925L16.312 15.8987H0V14.6577Z" fill="#D40511"></path>
  <path d="M0 12.3533H19.0752L18.0947 13.5942H0V12.3533Z" fill="#D40511"></path>
  <path d="M127.911 15.8987H110.708L111.688 14.6577H128V15.8987H127.911Z" fill="#D40511"></path>
  <path d="M113.381 12.3533H127.911V13.5942H112.401L113.381 12.3533Z" fill="#D40511"></path>

  <path d="M16.7578 18.2036L24.9584 7.30103H35.1199C36.2787 7.30103 36.2787 7.74422 35.6547 8.45333L33.6046 11.2011C33.3372 11.6443 32.8024 12.2648 34.496 12.2648H48.1338C47.0642 13.8603 43.3205 18.2923 36.7244 18.2923H16.7578Z" fill="#D40511"></path>

  <path d="M63.7328 12.3533L59.276 18.2921H47.5991L52.0559 12.3533H63.7328Z" fill="#D40511"></path>
  <path d="M80.757 12.3533L76.3002 18.2921H64.5342L68.991 12.3533H80.757Z" fill="#D40511"></path>

  <path d="M84.5905 12.3533L83.3425 14.0374C81.8272 15.9875 83.1643 18.2921 87.9776 18.2921H106.875L111.331 12.3533H84.5905Z" fill="#D40511"></path>

  <path d="M22.5514 0.564469L18.4512 5.97145H40.7353C41.894 5.97145 41.894 6.41464 41.2701 7.12375L39.22 9.87156C38.9525 10.2261 38.4177 10.9352 40.1113 10.9352H49.2032C49.2032 10.9352 50.7185 8.98517 51.8773 7.30103C53.5709 5.08506 52.0556 0.47583 46.0835 0.47583H22.5514Z" fill="#D40511"></path>

  <path d="M81.7381 10.9352H53.0361L60.8801 0.564453H72.6461L68.1893 6.50327H73.4484L77.9052 0.564453H89.6712L81.7381 10.9352Z" fill="#D40511"></path>
  <path d="M105.894 0.564453L98.0499 10.9352H85.5708L93.4148 0.564453H105.894Z" fill="#D40511"></path>
</svg>
